<svg class="bg-svg" xmlns="http://www.w3.org/2000/svg" viewBox="0 0 300 200" preserveAspectRatio="none">
  <g fill="currentColor" opacity="0.25">
    <path d="M260,30 C258,25 252,24 250,28 C248,24 242,25 240,30 C240,37 250,45 250,45 C250,45 260,37 260,30 Z"/>
    <path d="M282,55 C281,52 277,51 276,54 C275,51 271,52 270,55 C270,59 276,64 276,64 C276,64 282,59 282,55 Z"/>
    <path d="M38,165 C37,161 32,160 30,163 C28,160 23,161 22,165 C22,170 30,177 30,177 C30,177 38,170 38,165 Z"/>
    <path d="M60,180 C59,177 55,176 54,179 C53,176 49,177 48,180 C48,184 54,189 54,189 C54,189 60,184 60,180 Z"/>
  </g>
  <g fill="currentColor" opacity="0.14">
    <path d="M15,50 C14,47 10,46 9,49 C8,46 4,47 3,50 C3,54 9,59 9,59 C9,59 15,54 15,50 Z"/>
    <path d="M275,130 C274,127 270,126 269,129 C268,126 264,127 263,130 C263,134 269,139 269,139 C269,139 275,134 275,130 Z"/>
    <path d="M110,30 C109,28 106,27 105,29 C104,27 101,28 100,30 C100,33 105,37 105,37 C105,37 110,33 110,30 Z"/>
    <path d="M190,170 C189,168 186,167 185,169 C184,167 181,168 180,170 C180,173 185,177 185,177 C185,177 190,173 190,170 Z"/>
  </g>
</svg>
