<svg xmlns="http://www.w3.org/2000/svg" version="1.1" viewBox="-5.0 -10.0 110.0 135.0">
 <path d="m83.449 73.219c-3.4688 0-6.5586 1.6719-8.5195 4.2383l-11.051-6.0508c0.64062-0.96094 1.2188-1.9414 1.75-2.9609 2.3086-4.4609 3.5312-9.4883 3.5312-14.551 0-9.1992-3.9492-17.488-10.23-23.281l5.8984-5.8984c1.7695 1.2891 3.9492 2.0586 6.3008 2.0586 5.8906 0 10.691-4.8008 10.691-10.691s-4.8008-10.691-10.691-10.691-10.691 4.8008-10.691 10.691c0 2.6211 0.94922 5.0195 2.5195 6.8789l-5.9805 5.9805c-5.3711-4.1992-12.129-6.7109-19.469-6.7109-17.449 0-31.648 14.199-31.648 31.648 0 5.0586 1.2188 10.09 3.5312 14.551 2.2383 4.3203 5.5 8.1211 9.4297 11 5.4492 3.9883 11.91 6.1094 18.691 6.1094s13.238-2.1094 18.691-6.1094c2.3086-1.6914 4.3789-3.6992 6.1602-5.9492l11.27 6.1719c-0.55859 1.3008-0.87891 2.7383-0.87891 4.2383 0 5.8906 4.8008 10.691 10.691 10.691 5.8906 0 10.691-4.8008 10.691-10.691s-4.8008-10.691-10.691-10.691zm-12.32-65.258c4.4805 0 8.1289 3.6484 8.1289 8.1289 0 4.4805-3.6484 8.1289-8.1289 8.1289-4.4805 0-8.1289-3.6484-8.1289-8.1289 0-4.4805 3.6484-8.1289 8.1289-8.1289zm-15.68 68.848v-1.3789c0-4.9805-4.1016-9.0195-9.1406-9.0195h-17.602c-5.0391 0-9.1289 4.0508-9.1289 9.0195v1.3789c-7-5.5-11.16-13.988-11.16-22.91 0-16.039 13.051-29.09 29.09-29.09 16.039 0 29.09 13.051 29.09 29.09 0 8.9219-4.1484 17.41-11.16 22.91zm28 15.23c-4.4805 0-8.1289-3.6484-8.1289-8.1289 0-4.4805 3.6484-8.1289 8.1289-8.1289s8.1289 3.6484 8.1289 8.1289c0 4.4805-3.6484 8.1289-8.1289 8.1289zm-32.949-44.16v2.9414c0 7.0898-5.7695 12.859-12.859 12.859h-0.25c-7.0898 0-12.859-5.7695-12.859-12.859v-2.9414c0-7.0898 5.7695-12.859 12.859-12.859h0.25c7.0898 0 12.859 5.7695 12.859 12.859z"/>
<text x="0.0" y="117.5" font-size="5.0" font-weight="bold" font-family="Arbeit Regular, Helvetica, Arial-Unicode, Arial, Sans-serif" fill="#000000">Created by Akhmad Zaini</text><text x="0.0" y="122.5" font-size="5.0" font-weight="bold" font-family="Arbeit Regular, Helvetica, Arial-Unicode, Arial, Sans-serif" fill="#000000">from Noun Project</text></svg>