<svg xmlns="http://www.w3.org/2000/svg" xmlns:xlink="http://www.w3.org/1999/xlink" version="1.1" x="0px" y="0px" viewBox="0 0 128 160" style="enable-background:new 0 0 128 128;" xml:space="preserve"><g><g><g><g><path d="M41.722,81.783H15.737c-1.104,0-2-0.896-2-2s0.896-2,2-2h25.985c1.104,0,2,0.896,2,2S42.827,81.783,41.722,81.783z"/><path d="M41.722,71.665H15.737c-1.104,0-2-0.896-2-2s0.896-2,2-2h25.985c1.104,0,2,0.896,2,2S42.827,71.665,41.722,71.665z"/><path d="M48.756,91.475h-9.897c-1.104,0-2-0.896-2-2s0.896-2,2-2h9.897c1.104,0,2,0.896,2,2S49.86,91.475,48.756,91.475z"/><path d="M34.699,61.904H15.737c-1.104,0-2-0.896-2-2s0.896-2,2-2h18.962c1.104,0,2,0.896,2,2S35.804,61.904,34.699,61.904z"/><path d="M26.254,52.061H16.085c-1.104,0-2-0.896-2-2V40.04c0-1.104,0.896-2,2-2h10.169c1.104,0,2,0.896,2,2v10.021      C28.254,51.166,27.359,52.061,26.254,52.061z M18.085,48.061h6.169V42.04h-6.169V48.061z"/><g><g><path d="M47.078,67.986c-0.458,0-0.905-0.157-1.265-0.451c-0.449-0.367-0.717-0.911-0.734-1.491l-0.183-6.349        c-0.014-0.476,0.142-0.94,0.44-1.311l15.79-19.639c0.686-0.852,1.929-0.997,2.791-0.322l6.711,5.248        c0.423,0.331,0.695,0.817,0.755,1.35s-0.096,1.068-0.434,1.485L55.043,66.13c-0.305,0.375-0.735,0.628-1.211,0.711        l-6.412,1.115C47.306,67.976,47.191,67.986,47.078,67.986z M53.489,64.871h0.01H53.489z M48.915,60.316l0.095,3.304        l3.397-0.591l14.153-17.46l-3.554-2.779L48.915,60.316z"/></g></g></g><g><path d="M91.045,113.189H79.576c-1.104,0-2-0.896-2-2v-92.51c0-1.104,0.896-2,2-2h11.469c1.104,0,2,0.896,2,2s-0.896,2-2,2      h-9.469v88.51h9.469c1.104,0,2,0.896,2,2S92.15,113.189,91.045,113.189z"/><path d="M91.045,66H69.819c-1.104,0-2-0.896-2-2s0.896-2,2-2h21.226c1.104,0,2,0.896,2,2S92.15,66,91.045,66z"/></g></g><g><path d="M124,27.648h-22.64c-1.104,0-2-0.896-2-2V10c0-1.104,0.896-2,2-2H124c1.104,0,2,0.896,2,2v15.648     C126,26.752,125.104,27.648,124,27.648z M103.36,23.648H122V12h-18.64V23.648z"/><path d="M124,74.792h-22.64c-1.104,0-2-0.896-2-2V57.144c0-1.104,0.896-2,2-2H124c1.104,0,2,0.896,2,2v15.648     C126,73.896,125.104,74.792,124,74.792z M103.36,70.792H122V59.144h-18.64V70.792z"/><path d="M124,120h-22.64c-1.104,0-2-0.896-2-2v-15.648c0-1.104,0.896-2,2-2H124c1.104,0,2,0.896,2,2V118     C126,119.104,125.104,120,124,120z M103.36,116H122v-11.648h-18.64V116z"/></g></g><path d="M57.477,101.593H4c-1.104,0-2-0.896-2-2V30.414c0-0.532,0.212-1.042,0.588-1.417s0.863-0.627,1.419-0.583   c7.21,0.028,16.963,0.056,26.716,0.084c9.754,0.028,19.508,0.056,26.72,0.084c1.1,0.004,1.99,0.896,1.992,1.996   c0.004,1.824,0.009,7.988,0.014,15.93c0,0.457-0.155,0.899-0.441,1.255L48.915,60.316l0.095,3.304l3.397-0.591l3.496-4.313   c0.533-0.659,1.423-0.909,2.221-0.626s1.332,1.037,1.333,1.884l0.02,39.618c0,0.531-0.21,1.04-0.585,1.415   C58.517,101.382,58.008,101.593,57.477,101.593z M6,97.593h49.476L55.46,65.615l-0.417,0.515c-0.305,0.375-0.735,0.628-1.211,0.711   l-6.412,1.115c-0.572,0.1-1.158-0.054-1.608-0.421c-0.449-0.367-0.717-0.911-0.734-1.491l-0.183-6.349   c-0.014-0.476,0.142-0.94,0.44-1.311l10.113-12.578c-0.004-5.745-0.007-10.492-0.011-13.23c-6.962-0.026-15.844-0.051-24.727-0.077   C21.836,32.473,12.96,32.447,6,32.421V97.593z M53.489,64.871h0.01H53.489z"/></g><text x="0" y="143" fill="#000000" font-size="5px" font-weight="bold" font-family="'Helvetica Neue', Helvetica, Arial-Unicode, Arial, Sans-serif">Created by Shocho</text><text x="0" y="148" fill="#000000" font-size="5px" font-weight="bold" font-family="'Helvetica Neue', Helvetica, Arial-Unicode, Arial, Sans-serif">from the Noun Project</text></svg>