<svg width="48" height="48" viewBox="0 0 48 48" fill="none" xmlns="http://www.w3.org/2000/svg">
<rect width="48" height="48" rx="24" fill="#9BAE9E"/>
<path d="M24 45.6608C24 39.7119 14.9103 21.0929 7.23914 12.8023C6.47353 11.9749 7.09725 10.9273 8.01339 11.586C13.3955 15.4559 19.7617 21.399 23.5306 23.7462C23.8197 23.9263 24.1803 23.9263 24.4694 23.7462C28.2382 21.399 34.6044 15.4559 39.9866 11.586C40.9027 10.9273 41.5265 11.9749 40.7608 12.8023C33.0896 21.0929 24 39.7459 24 45.6608Z" fill="white"/>
<path d="M7.11853 14.6697C7.6415 15.2715 8.16999 15.9123 8.70057 16.5877C7.59577 18.8335 6.97544 21.3583 6.97544 24.0274C6.97544 32.4122 13.0961 39.3741 21.1337 40.7303C21.3612 41.5346 21.5661 42.3336 21.7466 43.1245C12.1381 42.0137 4.67999 33.8874 4.67999 24.0274C4.67999 20.6304 5.5651 17.4392 7.11853 14.6697Z" fill="white"/>
<path d="M40.8813 14.6697C42.4347 17.4392 43.32 20.6304 43.32 24.0274C43.32 33.8875 35.8616 42.0139 26.253 43.1245C26.4335 42.3336 26.6386 41.5346 26.8661 40.7303C34.9038 39.3742 41.0245 32.4123 41.0245 24.0274C41.0245 21.3583 40.4041 18.8335 39.2992 16.5877C39.8298 15.9123 40.3583 15.2715 40.8813 14.6697Z" fill="white"/>
<path d="M24 4.80078C29.6877 4.80078 34.8011 7.24678 38.3366 11.1393C37.7348 11.5867 37.1242 12.0549 36.5097 12.5359C33.3993 9.18424 28.946 7.08513 24 7.08513C19.0539 7.08513 14.6005 9.18418 11.4901 12.5359C10.8756 12.0549 10.265 11.5867 9.66317 11.1393C13.1987 7.24673 18.3123 4.80078 24 4.80078Z" fill="white"/>
<path d="M27.8257 15.5563C27.8257 17.7115 26.1129 19.4587 24 19.4587C21.8871 19.4587 20.1743 17.7115 20.1743 15.5563C20.1743 13.401 21.8871 11.6538 24 11.6538C26.1129 11.6538 27.8257 13.401 27.8257 15.5563Z" fill="white"/>
</svg>
